<?xml version="1.0" encoding="utf-8"?>
<!-- Generator: Adobe Illustrator 22.1.0, SVG Export Plug-In . SVG Version: 6.00 Build 0)  -->
<svg version="1.1" id="Layer_1" xmlns="http://www.w3.org/2000/svg" xmlns:xlink="http://www.w3.org/1999/xlink" x="0px" y="0px"
	 viewBox="0 0 445.7 201.8" style="enable-background:new 0 0 445.7 201.8;" xml:space="preserve">
<style type="text/css">
	.st0{fill:#EF3F3F;}
</style>
<g>
	<g>
		<path class="st0" d="M162.7,71.8c-2.4-5.3-4.9-10.6-8.3-15.3c-16-22.1-38.4-31.5-65-31.8c-14.7-0.2-29.3,0.1-44-0.1
			c-9-0.2-18-0.5-26.9-1.7C11.9,22,6.2,18.8,0.2,16c-0.5,2.3,0.1,4,0.6,5.8c3.4,11,10.3,19.5,19.6,26.2c5.1,3.6,7.5,8.4,7.5,14.4
			c0.1,30.8,0.1,61.7,0,92.5c0,6.1-2.2,10.9-8,13.8c-4.9,2.5-9.4,5.5-14.7,8.6c0.9,0.4,1.2,0.6,1.5,0.6c29.8,0,59.7,0.3,89.5-0.3
			c15.6-0.3,29.9-5.9,42.4-15.5c1.3-1,2.9-1.6,2.9-3.7c-0.1-5.6,0-11.2,0-16.9c-2.4,0.1-2.1,3.1-4.1,2.8
			c-0.1-18.5,2.9-35.9,17.2-49.5c-6.2,1.2-12.5,2.5-19.6,3.9c8.1-8.7,15.4-16.9,25.7-21.6C163.3,75.8,164,74.6,162.7,71.8z
			 M119.9,121.6c-5.1,12.3-15,18.2-28,19.1c-5.8,0.4-11.6-0.1-17.5,0.2c-3.6,0.2-4.1-1.4-4-4.4c0.2-23.6,0.3-47.3,0-70.9
			c0-2.9,0.7-4.2,3.9-4c5.8,0.3,11.7-0.2,17.5,0.2c13.2,0.9,23.2,7,28.2,19.5C125.3,94.7,125.4,108.3,119.9,121.6z"/>
		<path class="st0" d="M260.2,15.5c24.3,16.9,65.7,8.7,93.5,9.4c39.3,0.9,70.1,28.4,74.1,67.5c5,49.6-29.1,80.3-66.2,84.7
			c-5,0.6-9.8,0.8-15.4,0.9c7.8-13.4,6-25.3-4-36.5c2.3-1.1,4.6-0.5,6.8-0.5c18-0.3,29.4-9.4,33.4-26.9c2.5-11.1,2.1-22.2-2.4-32.8
			c-5.3-12.4-15.2-18.5-28.4-19.4c-15.2-1-40.4-1.4-53.7,6.3c0.7-1,1.4-2.1,2.4-3.6c-4.7,1-8,3.6-12.3,5.4c0-2-0.1-3.4,0-4.8
			c0.6-7.8-2.4-13.5-8.9-18.3c-8.9-6.5-15.5-15.1-18.5-26c-0.3-1-0.5-1.9-0.6-2.9C259.9,17.4,260.1,16.7,260.2,15.5z"/>
		<path class="st0" d="M160.1,185.5c-11.1-12.2-14.8-25.7-13.7-40.8c0.2-2.9,6.1-19.6,3-21.5c-2.2,0.1-4.1,1.1-5.4,3
			c2.1-13.3,9.1-22.8,19.6-30.4c-1.3,8.2-1.7,16.3-2.4,25.8c7.5-7.9,13.4-15.8,23.2-19.7c-0.8,4.7-1.5,9-2.3,13.7
			c6.4-2.4,10.6-9.6,18.8-7.5c-14.5,19.2-21.9,69.7,17.8,57.1c8.4-2.7,17.3-19.4,23.7-19.1c3,0.1,17.4,11.8,15.2,15.8
			c-9.7,17.6-22.5,31.5-43.2,35.4c-11.5,2.2-23.3,1.3-33.9-4.1c-4.9-2.5-14.3-16-19.5-15.7C159.2,179.7,158.9,182.4,160.1,185.5z"/>
		<path class="st0" d="M222.3,102c1.8,3.7,17.9,13.6,20.4,15.1c4.7,2.6,15.1,6.4,20,10.6c6.7,5.8,13.6,11.3,20.4,16.8
			c8.3,6.8,19.2,3.5,18.9-8.4c8.4,5.1,9.7,17.3,2.9,27c16.9,3.9,28.5-13.1,13.8-24.9c33-6.1,35.3,47.2-3.5,48.7
			c3,3.6,5.5,4.4,18.1,5.2c-19.5,18-47.6,9.8-52.6-15.9c-5.4,7-4.8,13.4-1.3,20.1c-8-2.8-13-9.5-13.4-17.8c0-0.5-0.1-1,0-1.5
			c3.4-14.3-3.8-23.4-14.8-30.9c-6.6-4.4-16.9-11.4-17-20.4C234.3,114.7,219.8,113.5,222.3,102z"/>
		<path class="st0" d="M251.2,98.6c-1.6-2.8-5.6-4.1-5.2-8.3c0.4-5-2.1-9.3-4.9-13.3c-3.7-5.2-8.7-9.1-13.3-13.5
			c-6.7-6.3-13.2-12.8-14.1-22.8c-4,5.8-3.4,12.9,1.2,17.5c4.6,4.6,9.9,8.4,13.9,13.6c1,1.3,2.9,2.4,1.9,4.4
			c-2.8-2.6-5.5-5.2-8.3-7.9c-8.9-8.6-19.7-15.8-21.1-31c-3.6,7.2-3.7,13.6-3.4,20.1c0.1,2.8,1.1,4.9,3.5,6.7
			c3.2,2.3,6.1,5.1,7.7,10.3c-9.4-10.6-23.8-12.7-30.8-24.9c-1.8,5.3,0,9.5,1.5,14.1c-4.5-1-8.9-1.2-14.3-0.9
			c1.5,1.1,2.1,1.6,2.7,2.1c8.2,7,7.9,9.8-1.6,15c-1,0.6-2,1.2-3,1.7c-4,2.2-8.2,4.1-11.7,7.9c15-2.1,17.9,0.8,16.4,16.5
			c6.9-5.5,14.1-10,22.3-12.8c-1.9-2.5-5.1-0.5-6.9-2.5c6-6.3,16.2-9.7,25.9-8.3c-5.8,2-11.4,2.3-15.9,5.8c2.5,1.6,5.6,1,8.1,3
			c-5,3-9.3,6.6-11.9,12.8c7.6-2.6,14.2-3.1,19,3.1c4.4,5.6,1.5,11-2.2,15.8c2.2,1.2,4.3-1.2,6.2,0.3c-0.5,2.7-3.2,3.9-4.6,6.6
			c6.9-1.6,12.7-3.5,16.8-10.3c-6,1.3-6.7-1.6-6.1-5.8c0.1-0.9,1-2.7-0.8-2.7c-4.7,0-3.9-3.6-2.9-5.5c3.1-6.1,0.1-7.3-5.1-7.2
			c-0.1,0-0.2-0.5-0.4-1c6.2-1.6,12.4-2.1,18.7-1.6c3.8,0.3,5.5,1.9,3.9,5.9c-0.4,0.9-1.5,1.8-0.7,3c12,0.9,14.2,2.5,15.1,11.8
			c7.4-5.4,10.1-12.6,10.4-21.7C254.4,96.1,251.9,99.8,251.2,98.6z M224.1,81.5l9.1,8.8C228.1,90.7,226,88.9,224.1,81.5z"/>
		<path class="st0" d="M192.2,55.4c-9.6-4-10.2-13.7-14.8-21.5c-2.3,7.4-5.4,13.9-5.4,21.6c-6.9-9.8-6-27.2,2.1-38.2
			c20.2-27.5,70.6-21.7,76.6,14.3c2.1,12.5-2.5,23.5-8.9,33.9c-2.9,4.6-16.7-12.6-17.2-14c-2.4-7.3,3.7-14.9-0.1-22.4
			c-6.8-13.6-26-13.1-28.8,4.1C194.5,40.5,191.6,47.5,192.2,55.4z"/>
		<path class="st0" d="M351.9,87.4c-5.7,0.7-11-0.3-16,1.4c-0.5,0.2-1,0.1-1.5,0.2c-7.6,2.7-14.7,4.8-23.5,2.3
			c-9-2.5-17,2.8-22.9,10.2c-6.4,8.1-11.7,16.9-16.3,26.4c-4.8-3-8.3-7.5-14-9.6c11.9-15.1,25.2-27.7,44.1-32.8
			c1.4-1.2,3.1-1.3,4.2-1.3c-0.6,0-1.5-0.1-2.4,0.2c-1.3,0.4-2.6-0.7-3.9,0.2c-12.8,2.1-23.1,8.8-32.8,17
			c3.5-10.6,10.5-18.4,19.2-25.1c0.3,0.6,0.5,0.9,0.5,1.1c-0.6,1.8-3.1,3.8-1.2,5.3c2,1.6,3.8-1,5.4-2.2c3.7-2.8,7.1-6.1,11.3-8.2
			c1.7-0.9,3.3-2.3,5.5-1.5c-0.1,0.2-0.1,0.4-0.2,0.5c-1.4,1.6-4.9,2.7-3.4,5.3c1.5,2.6,4.3,0.3,6.3-0.4
			C326.3,71.4,339.4,76.6,351.9,87.4z"/>
		<path class="st0" d="M291.3,123c1.9,5.3,3.5,9.1,4.6,13c2.6,8.8-8,7.2-8,3.1c0.2-16-4.6-36.2,14.9-41.9c5.6-1.6,9.5,1.7,14.3,1.1
			c-2.5,0.3,15.7-0.7,12.7-2.1c1.7,0.8,0.7,3,0.7,4.5c0.1,9.8,0,19.6,0.1,29.5c0.1,6.2-9.3,1-12.4,1.7
			C307.6,134.4,300,127.7,291.3,123z"/>
		<path class="st0" d="M313.8,157.6c1.8-5.2,0.9-9.8,0.8-14.8c3.9,1.5,6.4,3.8,6.4,7.6C320.9,154.4,318.1,156.4,313.8,157.6z"/>
		<path class="st0" d="M324.5,68.3c2.1-0.4,3.7-2.8,6.1-1.4C334.7,69.4,324.4,68.2,324.5,68.3z"/>
	</g>
	<g>
		<path class="st0" d="M445.7,165.2c0,7.4-5.8,13.3-13.5,13.3c-7.5,0-13.5-5.8-13.5-13.3c0-7.3,6-13.1,13.5-13.1
			C439.9,152.1,445.7,157.9,445.7,165.2z M422.1,165.2c0,5.8,4.3,10.5,10.3,10.5c5.8,0,10-4.6,10-10.4c0-5.8-4.2-10.6-10.1-10.6
			S422.1,159.5,422.1,165.2z M430.2,172.1h-3V159c1.2-0.2,2.9-0.4,5-0.4c2.5,0,3.6,0.4,4.6,1c0.7,0.6,1.3,1.6,1.3,2.9
			c0,1.4-1.1,2.6-2.7,3v0.2c1.3,0.5,2,1.4,2.4,3.2c0.4,2,0.6,2.8,1,3.3h-3.3c-0.4-0.5-0.6-1.7-1-3.2c-0.2-1.4-1-2.1-2.7-2.1h-1.4
			v5.2H430.2z M430.3,164.7h1.4c1.7,0,3-0.6,3-1.9c0-1.2-0.9-2-2.8-2c-0.8,0-1.4,0.1-1.7,0.2v3.7H430.3z"/>
	</g>
</g>
</svg>
